<svg width="120" height="37" viewBox="0 0 120 37" fill="none" xmlns="http://www.w3.org/2000/svg">
<path d="M0.296 8.592V0.959999H13.592V36H5.048V8.592H0.296ZM19.2069 18C19.2069 12.496 20.2629 8.16 22.3749 4.992C24.5189 1.824 27.9589 0.239997 32.6949 0.239997C37.4309 0.239997 40.8549 1.824 42.9669 4.992C45.1109 8.16 46.1829 12.496 46.1829 18C46.1829 23.568 45.1109 27.936 42.9669 31.104C40.8549 34.272 37.4309 35.856 32.6949 35.856C27.9589 35.856 24.5189 34.272 22.3749 31.104C20.2629 27.936 19.2069 23.568 19.2069 18ZM38.1189 18C38.1189 14.768 37.7669 12.288 37.0629 10.56C36.3589 8.8 34.9029 7.92 32.6949 7.92C30.4869 7.92 29.0309 8.8 28.3269 10.56C27.6229 12.288 27.2709 14.768 27.2709 18C27.2709 20.176 27.3989 21.984 27.6549 23.424C27.9109 24.832 28.4229 25.984 29.1909 26.88C29.9909 27.744 31.1589 28.176 32.6949 28.176C34.2309 28.176 35.3829 27.744 36.1509 26.88C36.9509 25.984 37.4789 24.832 37.7349 23.424C37.9909 21.984 38.1189 20.176 38.1189 18ZM50.5194 18C50.5194 12.496 51.5754 8.16 53.6874 4.992C55.8314 1.824 59.2714 0.239997 64.0074 0.239997C68.7434 0.239997 72.1674 1.824 74.2794 4.992C76.4234 8.16 77.4954 12.496 77.4954 18C77.4954 23.568 76.4234 27.936 74.2794 31.104C72.1674 34.272 68.7434 35.856 64.0074 35.856C59.2714 35.856 55.8314 34.272 53.6874 31.104C51.5754 27.936 50.5194 23.568 50.5194 18ZM69.4314 18C69.4314 14.768 69.0794 12.288 68.3754 10.56C67.6714 8.8 66.2154 7.92 64.0074 7.92C61.7994 7.92 60.3434 8.8 59.6394 10.56C58.9354 12.288 58.5834 14.768 58.5834 18C58.5834 20.176 58.7114 21.984 58.9674 23.424C59.2234 24.832 59.7354 25.984 60.5034 26.88C61.3034 27.744 62.4714 28.176 64.0074 28.176C65.5434 28.176 66.6954 27.744 67.4634 26.88C68.2634 25.984 68.7914 24.832 69.0474 23.424C69.3034 21.984 69.4314 20.176 69.4314 18ZM81.1599 9.792C81.1599 7.2 81.8959 5.2 83.3679 3.792C84.8719 2.384 86.8079 1.68 89.1759 1.68C91.5439 1.68 93.4639 2.384 94.9359 3.792C96.4079 5.2 97.1439 7.2 97.1439 9.792C97.1439 12.384 96.4079 14.384 94.9359 15.792C93.4639 17.2 91.5439 17.904 89.1759 17.904C86.8079 17.904 84.8719 17.2 83.3679 15.792C81.8959 14.384 81.1599 12.384 81.1599 9.792ZM113.752 2.208L95.2719 36H87.3519L105.832 2.208H113.752ZM89.1279 6.48C87.5919 6.48 86.8239 7.584 86.8239 9.792C86.8239 11.968 87.5919 13.056 89.1279 13.056C89.8639 13.056 90.4399 12.784 90.8559 12.24C91.2719 11.696 91.4799 10.88 91.4799 9.792C91.4799 7.584 90.6959 6.48 89.1279 6.48ZM104.008 28.416C104.008 25.824 104.744 23.824 106.216 22.416C107.688 21.008 109.608 20.304 111.976 20.304C114.344 20.304 116.264 21.008 117.736 22.416C119.208 23.824 119.944 25.824 119.944 28.416C119.944 31.008 119.208 33.008 117.736 34.416C116.264 35.824 114.344 36.528 111.976 36.528C109.608 36.528 107.688 35.824 106.216 34.416C104.744 33.008 104.008 31.008 104.008 28.416ZM111.928 25.104C111.192 25.104 110.616 25.376 110.2 25.92C109.816 26.464 109.624 27.296 109.624 28.416C109.624 30.592 110.392 31.68 111.928 31.68C112.664 31.68 113.24 31.408 113.656 30.864C114.072 30.32 114.28 29.504 114.28 28.416C114.28 27.328 114.072 26.512 113.656 25.968C113.24 25.392 112.664 25.104 111.928 25.104Z" fill="#227B70"/>
</svg>
