<svg width="48" height="117" viewBox="0 0 48 117" fill="none" xmlns="http://www.w3.org/2000/svg">
<path d="M35.7525 26.5234C37.567 26.5234 39.237 26.871 40.7628 27.5665C45.2918 29.8278 47.966 34.1255 48 38.9178V71.9287C47.1505 77.1765 41.0951 75.7495 40.9485 71.9287V40.7586C40.4089 38.9811 36.9488 39.7181 36.866 40.7586V112.303C35.9862 119.608 26.4696 117.464 26.2269 112.18V68.3699C25.6184 65.5442 21.6136 66.8282 21.5258 68.4927C21.6956 83.0546 21.6495 97.6174 21.6495 112.18C20.7005 119.448 11.2301 117.588 11.0103 112.303L10.8867 40.7586C10.332 39.0194 7.12582 39.6865 7.05152 40.7586V71.9287C6.2019 77.1765 0.146649 75.7495 0 71.9287V38.9178C0.0856106 34.3299 1.78072 29.7336 5.81444 27.5665C7.13408 26.871 8.7423 26.5233 10.6392 26.5233L35.7525 26.5234ZM35.6278 11.532C35.6278 17.901 30.4228 23.0641 24.0022 23.0641C17.5817 23.0641 12.3768 17.901 12.3768 11.532C12.3767 5.16311 17.5816 0 24.002 0C30.4228 0 35.6278 5.16311 35.6278 11.532Z" fill="#227B70"/>
</svg>
